<?xml version="1.0" standalone="no"?>
<!DOCTYPE svg PUBLIC "-//W3C//DTD SVG 20010904//EN"
 "http://www.w3.org/TR/2001/REC-SVG-20010904/DTD/svg10.dtd">
<svg version="1.0" xmlns="http://www.w3.org/2000/svg"
 width="1536.000000pt" height="1024.000000pt" viewBox="0 0 1536.000000 1024.000000"
 preserveAspectRatio="xMidYMid meet">

<g transform="translate(0.000000,1024.000000) scale(0.100000,-0.100000)"
fill="#000000" stroke="none">
<path d="M8885 8605 l-25 -24 0 -1796 c0 -1782 0 -1795 20 -1815 20 -20 33
-20 560 -20 l540 0 0 -1069 c0 -1024 1 -1071 19 -1113 24 -56 73 -105 131
-132 l45 -21 1770 -3 c1981 -3 1831 -8 1919 70 25 21 55 60 68 86 l23 47 0
1115 0 1115 -23 47 c-13 27 -42 63 -64 82 -80 69 -38 66 -1000 66 l-868 0 0
398 1 397 710 720 c391 396 732 746 760 778 46 54 49 62 49 112 0 51 -3 58
-59 127 -98 121 -124 145 -168 157 -80 22 -92 14 -299 -193 -105 -105 -371
-375 -592 -601 l-402 -410 0 933 c0 919 0 932 -20 952 -20 20 -33 20 -1545 20
l-1526 0 -24 -25z m3005 -1053 l0 -957 -160 -160 -160 -160 -100 -235 c-55
-129 -100 -245 -100 -256 0 -31 25 -47 62 -41 37 6 347 133 451 185 4 2 7
-152 7 -342 l0 -346 -857 -2 -858 -3 -41 -22 c-47 -25 -112 -95 -120 -130 l-6
-23 -519 0 -519 0 0 1725 0 1725 1460 0 1460 0 0 -958z m-90 -1544 c0 -5 -6
-8 -12 -8 -7 0 -68 -25 -136 -54 -68 -30 -122 -49 -119 -43 2 7 28 70 57 140
l53 128 79 -78 c43 -42 78 -81 78 -85z m213 -1640 c226 -127 420 -238 430
-246 20 -18 23 -61 5 -84 -14 -16 -71 -51 -527 -317 -166 -97 -306 -173 -321
-173 -37 -1 -65 17 -79 49 -8 21 -11 157 -9 497 l3 468 24 19 c13 10 32 19 42
19 11 0 205 -104 432 -232z m-706 -1165 c68 -32 105 -121 84 -200 -50 -186
-311 -172 -329 18 -5 54 16 125 46 152 53 48 135 61 199 30z m-367 -160 l0
-58 -317 3 c-345 3 -343 2 -343 58 0 51 19 54 352 54 l308 0 0 -57z m2718 41
c25 -17 30 -65 8 -83 -10 -9 -291 -12 -1082 -11 l-1069 0 -3 41 c-2 23 -1 48
2 55 5 12 171 14 1063 14 942 0 1061 -2 1081 -16z"/>
<path d="M10963 8130 c-61 -25 -132 -89 -165 -151 -19 -37 -23 -59 -23 -134 0
-81 3 -95 30 -144 60 -109 166 -166 291 -159 121 8 213 69 262 177 67 147 4
324 -142 398 -71 36 -180 42 -253 13z m185 -105 c138 -58 163 -231 49 -332
-108 -95 -288 -23 -304 121 -8 66 4 112 40 153 58 66 141 88 215 58z"/>
<path d="M10094 7665 c-17 -9 -43 -28 -57 -43 -46 -50 -696 -966 -702 -991
-10 -40 13 -80 54 -91 24 -8 374 -10 1089 -8 l1054 3 19 24 c23 29 24 66 1
107 -46 83 -368 518 -396 535 -43 26 -105 24 -147 -4 -19 -12 -76 -79 -127
-147 -51 -69 -96 -124 -99 -123 -3 0 -121 160 -262 354 -141 194 -268 360
-281 371 -36 26 -108 32 -146 13z"/>
<path d="M9344 6094 c-13 -19 -15 -32 -8 -52 l9 -27 894 -3 c652 -1 897 1 907
9 17 14 18 71 2 87 -9 9 -223 12 -900 12 l-888 0 -16 -26z"/>
<path d="M9350 5670 c-24 -24 -25 -49 -6 -76 14 -18 34 -19 708 -21 759 -3
740 -5 746 54 6 65 35 63 -735 63 -680 0 -693 0 -713 -20z"/>
<path d="M1373 8149 c-70 -27 -146 -97 -180 -167 l-28 -57 -3 -1935 c-2 -1410
0 -1951 8 -1995 22 -114 101 -215 209 -268 l46 -22 2004 -3 c1898 -2 2003 -3
1996 -20 -31 -75 -55 -163 -55 -198 0 -39 5 -47 52 -88 l51 -45 -46 -188 c-96
-385 -129 -606 -108 -716 26 -143 125 -270 269 -346 l77 -40 -1598 -1 -1598 0
-24 -25 c-30 -29 -31 -49 -5 -75 20 -20 33 -20 5008 -20 4820 0 4989 1 5005
18 25 27 21 69 -6 87 -21 14 -198 15 -1625 13 -881 -2 -1602 -2 -1602 -1 0 1
34 18 75 38 86 43 200 142 238 208 55 95 72 195 57 328 -20 165 -120 626 -155
712 -4 9 -3 17 3 17 5 0 30 19 56 43 35 33 46 51 46 73 0 59 -233 730 -307
884 -84 176 -232 293 -478 380 -98 34 -463 141 -669 195 -71 19 -130 36 -131
37 -2 2 -5 53 -6 114 l-3 112 43 53 c86 108 156 249 197 397 12 43 22 62 33
62 26 0 116 57 145 91 77 91 117 236 98 349 -12 67 -58 151 -98 176 -21 15
-22 17 -9 72 56 237 33 458 -61 600 -19 29 -44 81 -54 115 -25 80 -69 148
-113 176 -20 12 -79 30 -134 40 -54 11 -125 29 -158 41 -160 57 -236 72 -395
77 -120 4 -173 2 -232 -10 -106 -22 -210 -64 -296 -120 -40 -26 -75 -47 -77
-47 -3 0 -5 135 -5 299 0 272 -2 305 -20 364 -26 84 -96 164 -178 204 l-57 28
-2575 2 c-2555 2 -2575 2 -2627 -18z m356 -303 c31 -17 51 -54 51 -97 0 -22
-10 -41 -34 -65 -46 -46 -101 -48 -148 -5 -28 25 -33 36 -33 76 0 40 5 51 33
76 37 33 85 38 131 15z m386 -8 c76 -68 32 -188 -70 -188 -52 0 -89 27 -105
74 -13 41 5 94 41 120 35 24 102 21 134 -6z m364 8 c30 -16 51 -53 51 -91 0
-93 -115 -141 -181 -76 -24 24 -29 38 -29 76 0 86 80 131 159 91z m4241 -582
l0 -86 -43 -48 c-56 -62 -100 -147 -129 -245 -32 -111 -32 -341 0 -458 l21
-78 -38 -35 c-66 -59 -85 -112 -85 -234 0 -119 18 -180 79 -262 34 -46 123
-108 156 -108 31 0 39 -87 39 -448 l0 -347 -172 -49 c-236 -66 -459 -141 -542
-183 -237 -118 -310 -222 -462 -660 l-78 -223 -1985 3 c-2253 3 -2037 -6
-2131 87 -87 88 -80 -71 -80 1802 l0 1658 2725 0 2725 0 0 -86z m1270 -527 c0
-12 18 -80 39 -152 66 -223 98 -338 107 -380 13 -56 40 -58 82 -5 37 45 66 51
99 20 52 -48 55 -163 8 -269 -43 -94 -104 -139 -175 -129 -28 4 -31 2 -40 -36
-24 -97 -75 -237 -116 -316 -142 -275 -378 -400 -660 -349 -241 43 -444 282
-526 618 l-22 89 -36 -5 c-109 -15 -210 136 -198 296 5 75 31 115 76 119 27 3
34 -2 57 -38 21 -34 31 -41 53 -38 l27 3 6 110 c11 191 49 306 117 352 49 33
119 37 287 17 216 -26 425 -24 540 5 89 22 224 80 246 107 15 18 29 9 29 -19z
m-1133 -1399 c6 -13 31 -50 55 -83 l45 -60 -6 -115 -6 -115 -52 -11 c-29 -6
-55 -9 -58 -6 -9 9 -6 412 3 412 5 0 13 -10 19 -22z m275 -262 c106 -58 187
-77 318 -77 135 0 202 15 312 70 l76 39 6 -32 c12 -63 8 -211 -7 -252 -48
-134 -158 -221 -312 -247 -198 -34 -402 78 -455 249 -11 36 -20 85 -20 108 0
50 12 176 16 176 2 0 32 -15 66 -34z m-182 -244 c0 -10 16 -51 35 -91 100
-208 343 -318 590 -266 93 20 163 56 232 118 65 60 112 129 139 205 22 62 -4
63 254 -10 519 -146 657 -194 757 -264 116 -82 167 -163 253 -404 102 -284
210 -602 210 -619 0 -20 -75 -71 -154 -106 -54 -24 -226 -75 -252 -75 -7 0 -8
20 -3 63 5 34 11 121 15 192 6 122 5 133 -15 173 -24 47 -60 74 -127 92 l-44
13 0 55 c0 61 -18 92 -53 92 -38 0 -57 -29 -57 -87 l0 -53 -1280 0 -1280 0 0
52 c0 56 -19 88 -53 88 -39 0 -57 -29 -57 -90 l0 -56 -53 -17 c-29 -9 -67 -31
-84 -48 -51 -49 -56 -79 -44 -256 16 -224 16 -215 -16 -207 -132 31 -300 100
-356 146 l-28 23 71 207 c113 335 200 569 233 633 17 33 61 89 98 126 115 115
273 179 794 323 255 71 275 75 275 48z m-1296 -1561 c41 -16 115 -39 165 -51
50 -13 91 -28 91 -35 0 -22 79 -1020 84 -1061 l5 -41 -44 8 c-102 19 -175 43
-261 84 -118 57 -193 124 -236 213 -30 61 -33 74 -32 157 1 63 13 151 42 290
39 192 103 465 108 465 2 0 36 -13 78 -29z m3719 -131 c39 -160 79 -354 102
-500 11 -70 12 -110 5 -153 -20 -128 -118 -239 -273 -312 -117 -56 -307 -104
-307 -77 0 4 18 205 40 447 22 242 42 474 45 515 10 129 13 139 43 146 97 21
191 48 240 68 31 13 60 20 63 17 4 -3 22 -71 42 -151z m-1842 -103 c91 -60 90
-192 -1 -254 -43 -30 -112 -31 -158 -3 -129 79 -73 280 78 280 32 0 58 -7 81
-23z"/>
<path d="M1682 7018 c-5 -7 -11 -22 -12 -33 -1 -11 -2 -379 -1 -817 1 -710 3
-798 17 -812 14 -14 147 -16 1314 -16 l1299 0 15 22 c14 20 16 115 16 823 0
708 -2 803 -16 823 l-15 22 -1303 0 c-1031 0 -1306 -3 -1314 -12z m2530 -829
c2 -402 1 -733 -1 -735 -2 -2 -550 -4 -1218 -4 l-1213 0 0 735 0 735 1215 0
1215 0 2 -731z"/>
<path d="M3189 6580 c-9 -5 -94 -179 -189 -386 -167 -362 -173 -377 -159 -403
16 -29 69 -41 86 -19 5 7 49 101 98 208 48 107 123 271 167 364 43 93 78 182
78 197 0 40 -43 61 -81 39z"/>
<path d="M2670 6473 c-8 -4 -93 -66 -187 -140 -153 -118 -173 -137 -173 -162
0 -20 10 -37 34 -57 70 -60 307 -239 325 -245 31 -12 66 13 66 46 0 26 -16 42
-140 137 -77 59 -141 112 -143 116 -1 5 41 42 95 82 161 120 193 149 193 175
0 13 -10 31 -22 39 -24 17 -25 17 -48 9z"/>
<path d="M3383 6470 c-12 -5 -25 -21 -29 -36 -8 -32 -10 -30 173 -172 62 -48
112 -90 113 -94 0 -3 -55 -48 -122 -98 -155 -117 -168 -129 -168 -155 0 -29
19 -45 52 -45 21 0 71 32 186 119 189 142 192 145 192 181 0 25 -21 45 -163
158 -144 114 -198 154 -209 151 -2 0 -13 -4 -25 -9z"/>
<path d="M4726 6704 c-9 -8 -16 -26 -16 -39 0 -57 -31 -55 734 -55 533 0 705
3 714 12 18 18 14 63 -6 81 -17 16 -81 17 -715 17 -619 0 -697 -2 -711 -16z"/>
<path d="M4732 6254 c-26 -18 -30 -65 -7 -84 12 -10 164 -13 714 -14 759 -1
731 -3 731 55 0 61 24 59 -730 59 -604 0 -688 -2 -708 -16z"/>
<path d="M4726 5804 c-9 -8 -16 -26 -16 -39 0 -56 -6 -55 460 -55 376 0 430 2
444 16 21 21 20 57 -2 77 -17 15 -62 17 -445 17 -374 0 -427 -2 -441 -16z"/>
<path d="M1687 4992 c-15 -17 -17 -59 -17 -401 0 -244 4 -389 10 -402 11 -19
36 -19 1315 -19 l1304 0 15 22 c14 19 16 74 16 400 0 365 -1 379 -20 398 -20
20 -33 20 -1313 20 -1241 0 -1295 -1 -1310 -18z m2530 -404 l2 -308 -1219 0
-1220 0 0 309 0 308 1218 -1 1217 -1 2 -307z"/>
</g>
</svg>
