<?xml version="1.0" encoding="UTF-8"?>
<!-- Created with Inkscape (http://www.inkscape.org/) -->
<svg width="512" height="512" version="1.1" viewBox="0 0 512 512" xml:space="preserve" xmlns="http://www.w3.org/2000/svg"><path d="m91.724 119.42-57.385 271.52h96.943c33.428 0 59.614-7.677 78.557-23.029 18.943-15.352 28.414-37.204 28.414-65.557 0-13.619-3.714-24.763-11.143-33.43-7.3047-8.7905-17.148-14.795-29.529-18.014v-1.4863c18.943-3.9619 33.552-11.886 43.828-23.771 10.276-12.01 15.414-27.3 15.414-45.871 0-20.057-7.2428-35.098-21.729-45.127-14.486-10.152-35.904-15.23-64.256-15.23zm240.84 0c-2.8984 0-5.3955 2.0452-5.9668 4.8867l-26.877 133.68-22.76 103.73 20.668 30.854 31.803-20.115 15.553-70.883 4.3242-17.98h87.842l10.4-46.986h-87.842l9.9902-47.678 4.9004-22.336h90.17c2.3053 0 4.2961-1.6123 4.7754-3.8672l8.0117-37.688c0.61484-2.8925-1.5918-5.6172-4.5488-5.6172zm-189.05 36.693a3.0582 2.971 0 0 1 1.543 0.46289l51.041 31.555a1.9173 1.8627 0 0 1 0 3.1426l-52.088 32.203a2.3771 2.3093 0 0 1-3.6543-1.9492v-62.443a3.0582 2.971 0 0 1 3.1582-2.9707zm279.4 41.891-22.924 29.697-16.15-22.057-20.318 26.398h84.92zm-272.49 82.17c0.41937-0.01 0.8489 0.0436 1.2734 0.16601 2.2643 0.65264 3.5823 3.0092 2.9297 5.2734l-17.049 59.672c-0.65264 2.2643-3.0111 3.5823-5.2754 2.9297-2.2643-0.65265-3.5823-3.0092-2.9297-5.2734l17.049-59.672c0.48949-1.6982 1.9371-2.8648 3.5859-3.0664 0.13741-0.0168 0.27623-0.0261 0.41601-0.0293zm-31.859 14.914c1.0922 0 2.1832 0.4156 3.0156 1.248 1.6649 1.6649 1.6649 4.3702 0 6.0352l-11.906 11.906 11.906 11.895c1.6649 1.6649 1.6649 4.3683 0 6.0332s-4.3683 1.6649-6.0332 0l-14.918-14.918c-1.6649-1.6649-1.6649-4.3683 0-6.0332l14.918-14.918c0.83245-0.83246 1.9254-1.248 3.0176-1.248zm46.871 0.0137c1.0922 0 2.1851 0.4156 3.0176 1.248l14.918 14.918c1.6649 1.6649 1.6649 4.3683 0 6.0332l-14.918 14.918c-1.6649 1.6649-4.3703 1.6649-6.0352 0-1.6649-1.6649-1.6649-4.3683 0-6.0332l11.908-11.908-11.895-11.906c-1.6621-1.6616-1.6628-4.3577-8e-3 -6.0234l4e-3 -4e-3c0.83126-0.82616 1.9198-1.2422 3.0078-1.2422z" fill="#1e40af" stroke-width=".17366"/></svg>
